<svg id="Capa_1" enable-background="new 0 0 512 512" height="512" viewBox="0 0 512 512" width="512" xmlns="http://www.w3.org/2000/svg"><g><g><path d="m504.5 291.786c4.143 0 7.5-3.357 7.5-7.5v-17.686c0-3.021-1.813-5.748-4.6-6.916l-59.1-24.786-26.401-112.73c-.795-3.392-3.819-5.79-7.303-5.79h-110.69v-43.73c0-4.143-3.357-7.5-7.5-7.5h-70.978c-4.142 0-7.5 3.357-7.5 7.5s3.358 7.5 7.5 7.5h63.478v274.931h-117.536c-9.637-25.924-34.626-44.446-63.864-44.446s-54.227 18.522-63.864 44.446h-28.642v-274.931h175.353c4.142 0 7.5-3.357 7.5-7.5s-3.358-7.5-7.5-7.5h-182.853c-4.142 0-7.5 3.357-7.5 7.5v322.256c0 4.143 3.358 7.5 7.5 7.5h36.141c9.637 25.925 34.626 44.447 63.864 44.447s54.228-18.522 63.864-44.447h104.135c4.143 0 7.5-3.357 7.5-7.5s-3.357-7.5-7.5-7.5h-100.458c.362-2.839.57-5.726.57-8.662 0-2.937-.208-5.823-.57-8.663h161.908c-.362 2.84-.57 5.727-.57 8.663s.208 5.823.57 8.662h-26.427c-4.143 0-7.5 3.357-7.5 7.5s3.357 7.5 7.5 7.5h30.103c9.637 25.925 34.625 44.447 63.865 44.447 29.239 0 54.228-18.522 63.864-44.447h36.141c4.143 0 7.5-3.357 7.5-7.5v-75.606c0-4.143-3.357-7.5-7.5-7.5s-7.5 3.357-7.5 7.5v35.781h-28.642c-9.637-25.924-34.625-44.446-63.864-44.446s-54.228 18.522-63.865 44.446h-36.723v-223.701h104.743l25.918 110.667c.549 2.341 2.186 4.276 4.402 5.206l58.031 24.336v12.699c0 4.143 3.357 7.5 7.5 7.5zm-489.5 95.618v-17.325h24.966c-.362 2.84-.57 5.727-.57 8.663s.208 5.823.57 8.662zm92.506 44.448c-29.285 0-53.11-23.825-53.11-53.109s23.825-53.109 53.11-53.109 53.11 23.825 53.11 53.109-23.825 53.109-53.11 53.109zm389.494-61.773v17.325h-24.967c.362-2.839.57-5.726.57-8.662 0-2.937-.208-5.823-.57-8.663zm-92.506-44.446c29.284 0 53.109 23.825 53.109 53.109s-23.825 53.109-53.109 53.109c-29.285 0-53.11-23.825-53.11-53.109s23.825-53.109 53.11-53.109z"/><path d="m328.731 265.088c-4.143 0-7.5 3.357-7.5 7.5s3.357 7.5 7.5 7.5h20.203c4.143 0 7.5-3.357 7.5-7.5s-3.357-7.5-7.5-7.5z"/><path d="m404.494 403.415c13.604 0 24.673-11.068 24.673-24.673s-11.068-24.673-24.673-24.673-24.673 11.068-24.673 24.673 11.069 24.673 24.673 24.673zm0-34.346c5.334 0 9.673 4.339 9.673 9.673s-4.339 9.673-9.673 9.673-9.673-4.339-9.673-9.673 4.339-9.673 9.673-9.673z"/><path d="m107.506 354.069c-13.604 0-24.673 11.068-24.673 24.673s11.068 24.673 24.673 24.673 24.673-11.068 24.673-24.673-11.069-24.673-24.673-24.673zm0 34.346c-5.333 0-9.673-4.339-9.673-9.673s4.339-9.673 9.673-9.673 9.673 4.339 9.673 9.673-4.34 9.673-9.673 9.673z"/><path d="m409.273 245.014c1.424-1.783 1.958-4.116 1.452-6.341l-19.121-84.132c-.776-3.415-3.812-5.838-7.313-5.838h-55.56c-4.143 0-7.5 3.357-7.5 7.5v84.132c0 4.143 3.357 7.5 7.5 7.5h74.681c2.281 0 4.439-1.038 5.861-2.821zm-73.042-12.179v-69.132h42.073l15.712 69.132z"/><path d="m151.953 149.786c-20.632-15.325-50.198-13.598-68.813 5.018-9.969 9.97-15.459 23.225-15.459 37.322 0 14.099 5.49 27.354 15.459 37.322l63.51 63.511c1.406 1.406 3.314 2.196 5.303 2.196s3.897-.79 5.303-2.196l63.51-63.511c9.969-9.969 15.459-23.224 15.459-37.322s-5.49-27.353-15.459-37.322c-18.616-18.615-48.181-20.342-68.813-5.018zm58.207 15.625c7.136 7.136 11.066 16.623 11.066 26.715s-3.93 19.58-11.066 26.715l-58.207 58.208-58.207-58.208c-7.136-7.135-11.066-16.623-11.066-26.715s3.93-19.579 11.066-26.715c7.324-7.324 17.014-10.995 26.71-10.995 9.493 0 18.994 3.521 26.277 10.578 2.908 2.818 7.529 2.818 10.438 0 14.724-14.265 38.493-14.08 52.989.417z"/></g></g></svg>